<svg width="144" height="144" viewBox="0 0 144 144" fill="none" xmlns="http://www.w3.org/2000/svg">
<path d="M144 72C144 121.706 121.706 144 72 144C22.2944 144 0 121.706 0 72C0 22.2944 22.2944 0 72 0C121.706 0 144 22.2944 144 72Z" fill="#44D62C" style="fill:#44D62C;fill:color(display-p3 0.2667 0.8392 0.1725);fill-opacity:1;"/>
<path d="M78.5053 30.5305L58.4753 30.5305L54.9613 41.1562H66.0865V63.5381L78.5053 63.5381V30.5305Z" fill="black" style="fill:black;fill-opacity:1;"/>
<path fill-rule="evenodd" clip-rule="evenodd" d="M94.8437 90.6261C94.8437 103.242 84.6164 113.469 72.0004 113.469C59.3844 113.469 49.1571 103.242 49.1571 90.6261C49.1571 78.0101 59.3844 67.7828 72.0004 67.7828C84.6164 67.7828 94.8437 78.0101 94.8437 90.6261ZM84.4731 90.626C84.4731 97.5145 78.8889 103.099 72.0004 103.099C65.1119 103.099 59.5276 97.5145 59.5276 90.626C59.5276 83.7375 65.1119 78.1533 72.0004 78.1533C78.8889 78.1533 84.4731 83.7375 84.4731 90.626Z" fill="black" style="fill:black;fill-opacity:1;"/>
</svg>
